<mxfile host="app.diagrams.net" agent="Mozilla/5.0 (Macintosh; Intel Mac OS X 10_15_7) AppleWebKit/537.36 (KHTML, like Gecko) Chrome/132.0.0.0 Safari/537.36" version="26.0.6">
  <diagram id="R2lEEEUBdFMjLlhIrx00" name="Page-1">
    <mxGraphModel dx="2803" dy="1708" grid="1" gridSize="10" guides="1" tooltips="1" connect="1" arrows="1" fold="1" page="0" pageScale="1" pageWidth="850" pageHeight="1100" background="none" math="0" shadow="0" extFonts="Permanent Marker^https://fonts.googleapis.com/css?family=Permanent+Marker">
      <root>
        <mxCell id="0" />
        <mxCell id="1" parent="0" />
        <mxCell id="i9lgYNFTx9GkfpuUzzLs-3" value="Own" style="shape=rhombus;perimeter=rhombusPerimeter;whiteSpace=wrap;html=1;align=center;labelBackgroundColor=none;fillColor=#F2CC8F;strokeColor=#E07A5F;fontColor=#393C56;rounded=1;" parent="1" vertex="1">
          <mxGeometry x="120" y="270" width="120" height="60" as="geometry" />
        </mxCell>
        <mxCell id="i9lgYNFTx9GkfpuUzzLs-4" value="University" style="swimlane;childLayout=stackLayout;horizontal=1;startSize=50;horizontalStack=0;rounded=1;fontSize=14;fontStyle=0;strokeWidth=2;resizeParent=0;resizeLast=1;shadow=0;dashed=0;align=center;arcSize=4;whiteSpace=wrap;html=1;labelBackgroundColor=none;fillColor=#F2CC8F;strokeColor=#E07A5F;fontColor=#393C56;" parent="1" vertex="1">
          <mxGeometry x="-120" y="250" width="160" height="120" as="geometry" />
        </mxCell>
        <mxCell id="i9lgYNFTx9GkfpuUzzLs-5" value="+Name&lt;br&gt;+Address&lt;br&gt;+Phone" style="align=left;strokeColor=none;fillColor=none;spacingLeft=4;fontSize=12;verticalAlign=top;resizable=0;rotatable=0;part=1;html=1;labelBackgroundColor=none;fontColor=#393C56;rounded=1;" parent="i9lgYNFTx9GkfpuUzzLs-4" vertex="1">
          <mxGeometry y="50" width="160" height="70" as="geometry" />
        </mxCell>
        <mxCell id="i9lgYNFTx9GkfpuUzzLs-6" value="Site" style="swimlane;childLayout=stackLayout;horizontal=1;startSize=50;horizontalStack=0;rounded=1;fontSize=14;fontStyle=0;strokeWidth=2;resizeParent=0;resizeLast=1;shadow=0;dashed=0;align=center;arcSize=4;whiteSpace=wrap;html=1;labelBackgroundColor=none;fillColor=#F2CC8F;strokeColor=#E07A5F;fontColor=#393C56;" parent="1" vertex="1">
          <mxGeometry x="320" y="250" width="160" height="120" as="geometry" />
        </mxCell>
        <mxCell id="i9lgYNFTx9GkfpuUzzLs-7" value="+Name&lt;br&gt;+Address" style="align=left;strokeColor=none;fillColor=none;spacingLeft=4;fontSize=12;verticalAlign=top;resizable=0;rotatable=0;part=1;html=1;labelBackgroundColor=none;fontColor=#393C56;rounded=1;" parent="i9lgYNFTx9GkfpuUzzLs-6" vertex="1">
          <mxGeometry y="50" width="160" height="70" as="geometry" />
        </mxCell>
        <mxCell id="i9lgYNFTx9GkfpuUzzLs-8" value="Classroom" style="swimlane;childLayout=stackLayout;horizontal=1;startSize=50;horizontalStack=0;rounded=1;fontSize=14;fontStyle=0;strokeWidth=2;resizeParent=0;resizeLast=1;shadow=0;dashed=0;align=center;arcSize=4;whiteSpace=wrap;html=1;labelBackgroundColor=none;fillColor=#F2CC8F;strokeColor=#E07A5F;fontColor=#393C56;" parent="1" vertex="1">
          <mxGeometry x="790" y="250" width="160" height="120" as="geometry" />
        </mxCell>
        <mxCell id="i9lgYNFTx9GkfpuUzzLs-9" value="+Name&lt;br&gt;+MaxSeat&lt;br&gt;" style="align=left;strokeColor=none;fillColor=none;spacingLeft=4;fontSize=12;verticalAlign=top;resizable=0;rotatable=0;part=1;html=1;labelBackgroundColor=none;fontColor=#393C56;rounded=1;" parent="i9lgYNFTx9GkfpuUzzLs-8" vertex="1">
          <mxGeometry y="50" width="160" height="70" as="geometry" />
        </mxCell>
        <mxCell id="i9lgYNFTx9GkfpuUzzLs-10" value="Student Group" style="swimlane;childLayout=stackLayout;horizontal=1;startSize=50;horizontalStack=0;rounded=1;fontSize=14;fontStyle=0;strokeWidth=2;resizeParent=0;resizeLast=1;shadow=0;dashed=0;align=center;arcSize=4;whiteSpace=wrap;html=1;labelBackgroundColor=none;fillColor=#F2CC8F;strokeColor=#E07A5F;fontColor=#393C56;" parent="1" vertex="1">
          <mxGeometry x="550" y="480" width="160" height="120" as="geometry" />
        </mxCell>
        <mxCell id="i9lgYNFTx9GkfpuUzzLs-11" value="+Name&lt;br&gt;+StudentNumber" style="align=left;strokeColor=none;fillColor=none;spacingLeft=4;fontSize=12;verticalAlign=top;resizable=0;rotatable=0;part=1;html=1;labelBackgroundColor=none;fontColor=#393C56;rounded=1;" parent="i9lgYNFTx9GkfpuUzzLs-10" vertex="1">
          <mxGeometry y="50" width="160" height="70" as="geometry" />
        </mxCell>
        <mxCell id="i9lgYNFTx9GkfpuUzzLs-12" value="Equipment" style="swimlane;childLayout=stackLayout;horizontal=1;startSize=50;horizontalStack=0;rounded=1;fontSize=14;fontStyle=0;strokeWidth=2;resizeParent=0;resizeLast=1;shadow=0;dashed=0;align=center;arcSize=4;whiteSpace=wrap;html=1;labelBackgroundColor=none;fillColor=#F2CC8F;strokeColor=#E07A5F;fontColor=#393C56;" parent="1" vertex="1">
          <mxGeometry x="1030" y="480" width="160" height="120" as="geometry" />
        </mxCell>
        <mxCell id="i9lgYNFTx9GkfpuUzzLs-13" value="+Brand&lt;br&gt;+Model&lt;br&gt;+Description&lt;br&gt;+isAttached&lt;br&gt;" style="align=left;strokeColor=none;fillColor=none;spacingLeft=4;fontSize=12;verticalAlign=top;resizable=0;rotatable=0;part=1;html=1;labelBackgroundColor=none;fontColor=#393C56;rounded=1;" parent="i9lgYNFTx9GkfpuUzzLs-12" vertex="1">
          <mxGeometry y="50" width="160" height="70" as="geometry" />
        </mxCell>
        <mxCell id="i9lgYNFTx9GkfpuUzzLs-14" value="Course" style="swimlane;childLayout=stackLayout;horizontal=1;startSize=50;horizontalStack=0;rounded=1;fontSize=14;fontStyle=0;strokeWidth=2;resizeParent=0;resizeLast=1;shadow=0;dashed=0;align=center;arcSize=4;whiteSpace=wrap;html=1;labelBackgroundColor=none;fillColor=#F2CC8F;strokeColor=#E07A5F;fontColor=#393C56;" parent="1" vertex="1">
          <mxGeometry x="790" y="650" width="160" height="120" as="geometry" />
        </mxCell>
        <mxCell id="i9lgYNFTx9GkfpuUzzLs-15" value="+Name&lt;div&gt;&lt;br/&gt;&lt;/div&gt;" style="align=left;strokeColor=none;fillColor=none;spacingLeft=4;fontSize=12;verticalAlign=top;resizable=0;rotatable=0;part=1;html=1;labelBackgroundColor=none;fontColor=#393C56;rounded=1;" parent="i9lgYNFTx9GkfpuUzzLs-14" vertex="1">
          <mxGeometry y="50" width="160" height="70" as="geometry" />
        </mxCell>
        <mxCell id="i9lgYNFTx9GkfpuUzzLs-20" value="Located on" style="shape=rhombus;perimeter=rhombusPerimeter;whiteSpace=wrap;html=1;align=center;labelBackgroundColor=none;fillColor=#F2CC8F;strokeColor=#E07A5F;fontColor=#393C56;rounded=1;" parent="1" vertex="1">
          <mxGeometry x="570" y="270" width="120" height="60" as="geometry" />
        </mxCell>
        <mxCell id="i9lgYNFTx9GkfpuUzzLs-29" value="" style="endArrow=none;html=1;rounded=0;strokeColor=#E07A5F;fontColor=#393C56;fillColor=#F2CC8F;exitX=0;exitY=0.5;exitDx=0;exitDy=0;entryX=1;entryY=0;entryDx=0;entryDy=0;" parent="1" source="i9lgYNFTx9GkfpuUzzLs-3" target="i9lgYNFTx9GkfpuUzzLs-5" edge="1">
          <mxGeometry relative="1" as="geometry">
            <mxPoint x="540" y="410" as="sourcePoint" />
            <mxPoint x="700" y="410" as="targetPoint" />
          </mxGeometry>
        </mxCell>
        <mxCell id="i9lgYNFTx9GkfpuUzzLs-49" value="1-N" style="edgeLabel;html=1;align=center;verticalAlign=middle;resizable=0;points=[];fontColor=#393C56;" parent="i9lgYNFTx9GkfpuUzzLs-29" vertex="1" connectable="0">
          <mxGeometry x="0.65" y="-1" relative="1" as="geometry">
            <mxPoint as="offset" />
          </mxGeometry>
        </mxCell>
        <mxCell id="i9lgYNFTx9GkfpuUzzLs-30" value="" style="endArrow=none;html=1;rounded=0;strokeColor=#E07A5F;fontColor=#393C56;fillColor=#F2CC8F;exitX=1;exitY=0.5;exitDx=0;exitDy=0;entryX=0;entryY=0;entryDx=0;entryDy=0;" parent="1" source="i9lgYNFTx9GkfpuUzzLs-3" target="i9lgYNFTx9GkfpuUzzLs-7" edge="1">
          <mxGeometry relative="1" as="geometry">
            <mxPoint x="530" y="410" as="sourcePoint" />
            <mxPoint x="700" y="410" as="targetPoint" />
          </mxGeometry>
        </mxCell>
        <mxCell id="i9lgYNFTx9GkfpuUzzLs-46" value="1-1" style="edgeLabel;html=1;align=center;verticalAlign=middle;resizable=0;points=[];fontColor=#393C56;" parent="i9lgYNFTx9GkfpuUzzLs-30" vertex="1" connectable="0">
          <mxGeometry x="0.7" y="-2" relative="1" as="geometry">
            <mxPoint x="-8" y="-2" as="offset" />
          </mxGeometry>
        </mxCell>
        <mxCell id="i9lgYNFTx9GkfpuUzzLs-34" value="" style="endArrow=none;html=1;rounded=0;strokeColor=#E07A5F;fontColor=#393C56;fillColor=#F2CC8F;exitX=0.5;exitY=1;exitDx=0;exitDy=0;entryX=0.5;entryY=0;entryDx=0;entryDy=0;" parent="1" source="i9lgYNFTx9GkfpuUzzLs-64" target="i9lgYNFTx9GkfpuUzzLs-12" edge="1">
          <mxGeometry relative="1" as="geometry">
            <mxPoint x="1120" y="300" as="sourcePoint" />
            <mxPoint x="730" y="440" as="targetPoint" />
          </mxGeometry>
        </mxCell>
        <mxCell id="i9lgYNFTx9GkfpuUzzLs-52" value="0-1" style="edgeLabel;html=1;align=center;verticalAlign=middle;resizable=0;points=[];fontColor=#393C56;rotation=0;" parent="i9lgYNFTx9GkfpuUzzLs-34" vertex="1" connectable="0">
          <mxGeometry x="0.525" relative="1" as="geometry">
            <mxPoint y="26" as="offset" />
          </mxGeometry>
        </mxCell>
        <mxCell id="i9lgYNFTx9GkfpuUzzLs-35" value="" style="endArrow=none;html=1;rounded=0;strokeColor=#E07A5F;fontColor=#393C56;fillColor=#F2CC8F;exitX=0;exitY=0.5;exitDx=0;exitDy=0;entryX=1;entryY=0;entryDx=0;entryDy=0;" parent="1" source="i9lgYNFTx9GkfpuUzzLs-64" target="i9lgYNFTx9GkfpuUzzLs-9" edge="1">
          <mxGeometry relative="1" as="geometry">
            <mxPoint x="1000" y="300" as="sourcePoint" />
            <mxPoint x="740" y="450" as="targetPoint" />
          </mxGeometry>
        </mxCell>
        <mxCell id="i9lgYNFTx9GkfpuUzzLs-53" value="0-N" style="edgeLabel;html=1;align=center;verticalAlign=middle;resizable=0;points=[];fontColor=#393C56;" parent="i9lgYNFTx9GkfpuUzzLs-35" vertex="1" connectable="0">
          <mxGeometry x="0.575" y="1" relative="1" as="geometry">
            <mxPoint y="-1" as="offset" />
          </mxGeometry>
        </mxCell>
        <mxCell id="i9lgYNFTx9GkfpuUzzLs-36" value="" style="endArrow=none;html=1;rounded=0;strokeColor=#E07A5F;fontColor=#393C56;fillColor=#F2CC8F;exitX=1;exitY=0.5;exitDx=0;exitDy=0;entryX=0;entryY=0;entryDx=0;entryDy=0;" parent="1" source="i9lgYNFTx9GkfpuUzzLs-20" target="i9lgYNFTx9GkfpuUzzLs-9" edge="1">
          <mxGeometry relative="1" as="geometry">
            <mxPoint x="580" y="460" as="sourcePoint" />
            <mxPoint x="750" y="460" as="targetPoint" />
          </mxGeometry>
        </mxCell>
        <mxCell id="i9lgYNFTx9GkfpuUzzLs-50" value="1-1" style="edgeLabel;html=1;align=center;verticalAlign=middle;resizable=0;points=[];fontColor=#393C56;" parent="i9lgYNFTx9GkfpuUzzLs-36" vertex="1" connectable="0">
          <mxGeometry x="0.7" y="2" relative="1" as="geometry">
            <mxPoint x="-5" y="2" as="offset" />
          </mxGeometry>
        </mxCell>
        <mxCell id="i9lgYNFTx9GkfpuUzzLs-37" value="" style="endArrow=none;html=1;rounded=0;strokeColor=#E07A5F;fontColor=#393C56;fillColor=#F2CC8F;exitX=0;exitY=0.5;exitDx=0;exitDy=0;entryX=1;entryY=0;entryDx=0;entryDy=0;" parent="1" source="i9lgYNFTx9GkfpuUzzLs-20" target="i9lgYNFTx9GkfpuUzzLs-7" edge="1">
          <mxGeometry relative="1" as="geometry">
            <mxPoint x="590" y="470" as="sourcePoint" />
            <mxPoint x="760" y="470" as="targetPoint" />
          </mxGeometry>
        </mxCell>
        <mxCell id="i9lgYNFTx9GkfpuUzzLs-51" value="1-N" style="edgeLabel;html=1;align=center;verticalAlign=middle;resizable=0;points=[];fontColor=#393C56;" parent="i9lgYNFTx9GkfpuUzzLs-37" vertex="1" connectable="0">
          <mxGeometry x="0.725" y="1" relative="1" as="geometry">
            <mxPoint x="8" y="-1" as="offset" />
          </mxGeometry>
        </mxCell>
        <mxCell id="i9lgYNFTx9GkfpuUzzLs-38" value="Schedule" style="swimlane;childLayout=stackLayout;horizontal=1;startSize=50;horizontalStack=0;rounded=1;fontSize=14;fontStyle=0;strokeWidth=2;resizeParent=0;resizeLast=1;shadow=0;dashed=0;align=center;arcSize=4;whiteSpace=wrap;html=1;labelBackgroundColor=none;fillColor=#F2CC8F;strokeColor=#E07A5F;fontColor=#393C56;" parent="1" vertex="1">
          <mxGeometry x="320" y="-90" width="160" height="120" as="geometry" />
        </mxCell>
        <mxCell id="i9lgYNFTx9GkfpuUzzLs-39" value="+DayOfTheWeek&lt;br&gt;+Hour_Start&lt;div&gt;+Hour_End&lt;/div&gt;" style="align=left;strokeColor=none;fillColor=none;spacingLeft=4;fontSize=12;verticalAlign=top;resizable=0;rotatable=0;part=1;html=1;labelBackgroundColor=none;fontColor=#393C56;rounded=1;" parent="i9lgYNFTx9GkfpuUzzLs-38" vertex="1">
          <mxGeometry y="50" width="160" height="70" as="geometry" />
        </mxCell>
        <mxCell id="i9lgYNFTx9GkfpuUzzLs-42" value="" style="endArrow=none;html=1;rounded=0;strokeColor=#E07A5F;fontColor=#393C56;fillColor=#F2CC8F;entryX=0;entryY=0.5;entryDx=0;entryDy=0;exitX=1;exitY=0;exitDx=0;exitDy=0;" parent="1" source="i9lgYNFTx9GkfpuUzzLs-11" target="i9lgYNFTx9GkfpuUzzLs-69" edge="1">
          <mxGeometry relative="1" as="geometry">
            <mxPoint x="550" y="430" as="sourcePoint" />
            <mxPoint x="780" y="480" as="targetPoint" />
          </mxGeometry>
        </mxCell>
        <mxCell id="i9lgYNFTx9GkfpuUzzLs-56" value="0-N" style="edgeLabel;html=1;align=center;verticalAlign=middle;resizable=0;points=[];fontColor=#393C56;" parent="i9lgYNFTx9GkfpuUzzLs-42" vertex="1" connectable="0">
          <mxGeometry x="-0.625" relative="1" as="geometry">
            <mxPoint as="offset" />
          </mxGeometry>
        </mxCell>
        <mxCell id="i9lgYNFTx9GkfpuUzzLs-43" value="" style="endArrow=none;html=1;rounded=0;strokeColor=#E07A5F;fontColor=#393C56;fillColor=#F2CC8F;entryX=0.5;entryY=0;entryDx=0;entryDy=0;exitX=0.5;exitY=1;exitDx=0;exitDy=0;" parent="1" source="i9lgYNFTx9GkfpuUzzLs-69" target="i9lgYNFTx9GkfpuUzzLs-14" edge="1">
          <mxGeometry relative="1" as="geometry">
            <mxPoint x="840" y="510" as="sourcePoint" />
            <mxPoint x="730" y="440" as="targetPoint" />
          </mxGeometry>
        </mxCell>
        <mxCell id="i9lgYNFTx9GkfpuUzzLs-55" value="0-N" style="edgeLabel;html=1;align=center;verticalAlign=middle;resizable=0;points=[];fontColor=#393C56;" parent="i9lgYNFTx9GkfpuUzzLs-43" vertex="1" connectable="0">
          <mxGeometry x="0.6667" y="2" relative="1" as="geometry">
            <mxPoint x="-2" as="offset" />
          </mxGeometry>
        </mxCell>
        <mxCell id="i9lgYNFTx9GkfpuUzzLs-44" value="" style="endArrow=none;html=1;rounded=0;strokeColor=#E07A5F;fontColor=#393C56;fillColor=#F2CC8F;entryX=0.5;entryY=0;entryDx=0;entryDy=0;exitX=0.5;exitY=1;exitDx=0;exitDy=0;" parent="1" source="i9lgYNFTx9GkfpuUzzLs-9" target="i9lgYNFTx9GkfpuUzzLs-69" edge="1">
          <mxGeometry relative="1" as="geometry">
            <mxPoint x="570" y="450" as="sourcePoint" />
            <mxPoint x="840" y="450" as="targetPoint" />
          </mxGeometry>
        </mxCell>
        <mxCell id="i9lgYNFTx9GkfpuUzzLs-54" value="0-N" style="edgeLabel;html=1;align=center;verticalAlign=middle;resizable=0;points=[];fontColor=#393C56;" parent="i9lgYNFTx9GkfpuUzzLs-44" vertex="1" connectable="0">
          <mxGeometry x="-0.7" relative="1" as="geometry">
            <mxPoint as="offset" />
          </mxGeometry>
        </mxCell>
        <mxCell id="i9lgYNFTx9GkfpuUzzLs-59" value="" style="endArrow=none;html=1;rounded=0;strokeColor=#E07A5F;fontColor=#393C56;fillColor=#F2CC8F;entryX=0.5;entryY=0;entryDx=0;entryDy=0;exitX=0.5;exitY=1;exitDx=0;exitDy=0;" parent="1" source="i9lgYNFTx9GkfpuUzzLs-7" target="i9lgYNFTx9GkfpuUzzLs-63" edge="1">
          <mxGeometry relative="1" as="geometry">
            <mxPoint x="100" y="430" as="sourcePoint" />
            <mxPoint x="400" y="450" as="targetPoint" />
          </mxGeometry>
        </mxCell>
        <mxCell id="i9lgYNFTx9GkfpuUzzLs-62" value="0-N" style="edgeLabel;html=1;align=center;verticalAlign=middle;resizable=0;points=[];fontColor=#393C56;" parent="i9lgYNFTx9GkfpuUzzLs-59" vertex="1" connectable="0">
          <mxGeometry x="-0.65" relative="1" as="geometry">
            <mxPoint y="-13" as="offset" />
          </mxGeometry>
        </mxCell>
        <mxCell id="i9lgYNFTx9GkfpuUzzLs-60" value="" style="endArrow=none;html=1;rounded=0;strokeColor=#E07A5F;fontColor=#393C56;fillColor=#F2CC8F;entryX=0;entryY=0;entryDx=0;entryDy=0;exitX=1;exitY=0.5;exitDx=0;exitDy=0;" parent="1" source="i9lgYNFTx9GkfpuUzzLs-63" target="i9lgYNFTx9GkfpuUzzLs-11" edge="1">
          <mxGeometry relative="1" as="geometry">
            <mxPoint x="460" y="480" as="sourcePoint" />
            <mxPoint x="280" y="440" as="targetPoint" />
          </mxGeometry>
        </mxCell>
        <mxCell id="i9lgYNFTx9GkfpuUzzLs-61" value="1-1" style="edgeLabel;html=1;align=center;verticalAlign=middle;resizable=0;points=[];fontColor=#393C56;" parent="i9lgYNFTx9GkfpuUzzLs-60" vertex="1" connectable="0">
          <mxGeometry x="0.575" relative="1" as="geometry">
            <mxPoint as="offset" />
          </mxGeometry>
        </mxCell>
        <mxCell id="i9lgYNFTx9GkfpuUzzLs-63" value="Prefered" style="shape=associativeEntity;whiteSpace=wrap;html=1;align=center;rounded=1;strokeColor=#E07A5F;fontColor=#393C56;fillColor=#F2CC8F;" parent="1" vertex="1">
          <mxGeometry x="330" y="500" width="140" height="60" as="geometry" />
        </mxCell>
        <mxCell id="i9lgYNFTx9GkfpuUzzLs-64" value="Attached to" style="shape=associativeEntity;whiteSpace=wrap;html=1;align=center;rounded=1;strokeColor=#E07A5F;fontColor=#393C56;fillColor=#F2CC8F;" parent="1" vertex="1">
          <mxGeometry x="1040" y="270" width="140" height="60" as="geometry" />
        </mxCell>
        <mxCell id="i9lgYNFTx9GkfpuUzzLs-67" value="" style="edgeStyle=orthogonalEdgeStyle;rounded=1;orthogonalLoop=1;jettySize=auto;html=1;strokeColor=#E07A5F;fontColor=#393C56;fillColor=#F2CC8F;" parent="1" source="i9lgYNFTx9GkfpuUzzLs-65" target="i9lgYNFTx9GkfpuUzzLs-63" edge="1">
          <mxGeometry relative="1" as="geometry" />
        </mxCell>
        <mxCell id="i9lgYNFTx9GkfpuUzzLs-65" value="Academic Year" style="ellipse;whiteSpace=wrap;html=1;align=center;rounded=1;strokeColor=#E07A5F;fontColor=#393C56;fillColor=#F2CC8F;" parent="1" vertex="1">
          <mxGeometry x="190" y="510" width="100" height="40" as="geometry" />
        </mxCell>
        <mxCell id="i9lgYNFTx9GkfpuUzzLs-68" value="" style="edgeStyle=orthogonalEdgeStyle;rounded=1;orthogonalLoop=1;jettySize=auto;html=1;strokeColor=#E07A5F;fontColor=#393C56;fillColor=#F2CC8F;" parent="1" source="i9lgYNFTx9GkfpuUzzLs-66" target="i9lgYNFTx9GkfpuUzzLs-64" edge="1">
          <mxGeometry relative="1" as="geometry" />
        </mxCell>
        <mxCell id="i9lgYNFTx9GkfpuUzzLs-66" value="Academic Year" style="ellipse;whiteSpace=wrap;html=1;align=center;rounded=1;strokeColor=#E07A5F;fontColor=#393C56;fillColor=#F2CC8F;" parent="1" vertex="1">
          <mxGeometry x="1060" y="200" width="100" height="40" as="geometry" />
        </mxCell>
        <mxCell id="i9lgYNFTx9GkfpuUzzLs-69" value="Gived" style="shape=associativeEntity;whiteSpace=wrap;html=1;align=center;rounded=1;strokeColor=#E07A5F;fontColor=#393C56;fillColor=#F2CC8F;" parent="1" vertex="1">
          <mxGeometry x="800" y="500" width="140" height="60" as="geometry" />
        </mxCell>
        <mxCell id="i9lgYNFTx9GkfpuUzzLs-70" value="DateTime End" style="ellipse;whiteSpace=wrap;html=1;align=center;rounded=1;strokeColor=#E07A5F;fontColor=#393C56;fillColor=#F2CC8F;" parent="1" vertex="1">
          <mxGeometry x="910" y="400" width="100" height="40" as="geometry" />
        </mxCell>
        <mxCell id="i9lgYNFTx9GkfpuUzzLs-73" value="DateTime Start" style="ellipse;whiteSpace=wrap;html=1;align=center;rounded=1;strokeColor=#E07A5F;fontColor=#393C56;fillColor=#F2CC8F;" parent="1" vertex="1">
          <mxGeometry x="720" y="400" width="100" height="40" as="geometry" />
        </mxCell>
        <mxCell id="i9lgYNFTx9GkfpuUzzLs-79" value="" style="rounded=1;orthogonalLoop=1;jettySize=auto;html=1;strokeColor=#E07A5F;fontColor=#393C56;fillColor=#F2CC8F;entryX=0.25;entryY=0;entryDx=0;entryDy=0;exitX=0.5;exitY=1;exitDx=0;exitDy=0;" parent="1" source="i9lgYNFTx9GkfpuUzzLs-73" target="i9lgYNFTx9GkfpuUzzLs-69" edge="1">
          <mxGeometry relative="1" as="geometry">
            <mxPoint x="910" y="490" as="targetPoint" />
            <mxPoint x="791.3328595119488" y="429.9928926792345" as="sourcePoint" />
          </mxGeometry>
        </mxCell>
        <mxCell id="i9lgYNFTx9GkfpuUzzLs-81" value="" style="endArrow=none;html=1;rounded=0;strokeColor=#E07A5F;fontColor=#393C56;fillColor=#F2CC8F;exitX=0.5;exitY=1;exitDx=0;exitDy=0;entryX=0.5;entryY=0;entryDx=0;entryDy=0;" parent="1" source="i9lgYNFTx9GkfpuUzzLs-39" target="iACFCSB-XH65aEvDO6Ks-16" edge="1">
          <mxGeometry relative="1" as="geometry">
            <mxPoint x="100" y="430" as="sourcePoint" />
            <mxPoint x="270" y="430" as="targetPoint" />
          </mxGeometry>
        </mxCell>
        <mxCell id="i9lgYNFTx9GkfpuUzzLs-89" value="0-N" style="edgeLabel;html=1;align=center;verticalAlign=middle;resizable=0;points=[];fontColor=#393C56;" parent="i9lgYNFTx9GkfpuUzzLs-81" vertex="1" connectable="0">
          <mxGeometry x="-0.7" y="1" relative="1" as="geometry">
            <mxPoint as="offset" />
          </mxGeometry>
        </mxCell>
        <mxCell id="i9lgYNFTx9GkfpuUzzLs-82" value="" style="endArrow=none;html=1;rounded=0;strokeColor=#E07A5F;fontColor=#393C56;fillColor=#F2CC8F;exitX=0.5;exitY=1;exitDx=0;exitDy=0;entryX=0.5;entryY=0;entryDx=0;entryDy=0;" parent="1" source="iACFCSB-XH65aEvDO6Ks-16" target="i9lgYNFTx9GkfpuUzzLs-6" edge="1">
          <mxGeometry relative="1" as="geometry">
            <mxPoint x="110" y="440" as="sourcePoint" />
            <mxPoint x="280" y="440" as="targetPoint" />
          </mxGeometry>
        </mxCell>
        <mxCell id="i9lgYNFTx9GkfpuUzzLs-88" value="1-N" style="edgeLabel;html=1;align=center;verticalAlign=middle;resizable=0;points=[];fontColor=#393C56;" parent="i9lgYNFTx9GkfpuUzzLs-82" vertex="1" connectable="0">
          <mxGeometry x="0.625" relative="1" as="geometry">
            <mxPoint as="offset" />
          </mxGeometry>
        </mxCell>
        <mxCell id="i9lgYNFTx9GkfpuUzzLs-105" value="" style="edgeStyle=orthogonalEdgeStyle;rounded=1;orthogonalLoop=1;jettySize=auto;html=1;strokeColor=#E07A5F;fontColor=#393C56;fillColor=#F2CC8F;entryX=1;entryY=0.5;entryDx=0;entryDy=0;" parent="1" source="i9lgYNFTx9GkfpuUzzLs-104" target="iACFCSB-XH65aEvDO6Ks-16" edge="1">
          <mxGeometry relative="1" as="geometry">
            <mxPoint x="460" y="140" as="targetPoint" />
          </mxGeometry>
        </mxCell>
        <mxCell id="i9lgYNFTx9GkfpuUzzLs-104" value="Academic Year" style="ellipse;whiteSpace=wrap;html=1;align=center;rounded=1;strokeColor=#E07A5F;fontColor=#393C56;fillColor=#F2CC8F;" parent="1" vertex="1">
          <mxGeometry x="510" y="120" width="100" height="40" as="geometry" />
        </mxCell>
        <mxCell id="i9lgYNFTx9GkfpuUzzLs-106" value="Require" style="shape=associativeEntity;whiteSpace=wrap;html=1;align=center;rounded=1;strokeColor=#E07A5F;fontColor=#393C56;fillColor=#F2CC8F;" parent="1" vertex="1">
          <mxGeometry x="1040" y="670" width="140" height="60" as="geometry" />
        </mxCell>
        <mxCell id="i9lgYNFTx9GkfpuUzzLs-109" value="" style="edgeStyle=orthogonalEdgeStyle;rounded=1;orthogonalLoop=1;jettySize=auto;html=1;strokeColor=#E07A5F;fontColor=#393C56;fillColor=#F2CC8F;" parent="1" source="i9lgYNFTx9GkfpuUzzLs-108" target="i9lgYNFTx9GkfpuUzzLs-106" edge="1">
          <mxGeometry relative="1" as="geometry" />
        </mxCell>
        <mxCell id="i9lgYNFTx9GkfpuUzzLs-108" value="Academic Year" style="ellipse;whiteSpace=wrap;html=1;align=center;rounded=1;strokeColor=#E07A5F;fontColor=#393C56;fillColor=#F2CC8F;" parent="1" vertex="1">
          <mxGeometry x="1060" y="770" width="100" height="40" as="geometry" />
        </mxCell>
        <mxCell id="i9lgYNFTx9GkfpuUzzLs-110" value="" style="endArrow=none;html=1;rounded=0;strokeColor=#E07A5F;fontColor=#393C56;fillColor=#F2CC8F;entryX=1;entryY=0.5;entryDx=0;entryDy=0;exitX=0;exitY=0;exitDx=0;exitDy=0;" parent="1" source="iACFCSB-XH65aEvDO6Ks-9" target="i9lgYNFTx9GkfpuUzzLs-106" edge="1">
          <mxGeometry relative="1" as="geometry">
            <mxPoint x="100" y="430" as="sourcePoint" />
            <mxPoint x="270" y="430" as="targetPoint" />
          </mxGeometry>
        </mxCell>
        <mxCell id="i9lgYNFTx9GkfpuUzzLs-113" value="0-N" style="edgeLabel;html=1;align=center;verticalAlign=middle;resizable=0;points=[];fontColor=#393C56;" parent="i9lgYNFTx9GkfpuUzzLs-110" vertex="1" connectable="0">
          <mxGeometry x="-0.912" y="-1" relative="1" as="geometry">
            <mxPoint x="-16" y="1" as="offset" />
          </mxGeometry>
        </mxCell>
        <mxCell id="i9lgYNFTx9GkfpuUzzLs-111" value="" style="endArrow=none;html=1;rounded=0;strokeColor=#E07A5F;fontColor=#393C56;fillColor=#F2CC8F;entryX=0;entryY=0.5;entryDx=0;entryDy=0;exitX=1;exitY=0;exitDx=0;exitDy=0;" parent="1" source="i9lgYNFTx9GkfpuUzzLs-15" target="i9lgYNFTx9GkfpuUzzLs-106" edge="1">
          <mxGeometry relative="1" as="geometry">
            <mxPoint x="110" y="440" as="sourcePoint" />
            <mxPoint x="280" y="440" as="targetPoint" />
          </mxGeometry>
        </mxCell>
        <mxCell id="i9lgYNFTx9GkfpuUzzLs-112" value="0-N" style="edgeLabel;html=1;align=center;verticalAlign=middle;resizable=0;points=[];fontColor=#393C56;" parent="i9lgYNFTx9GkfpuUzzLs-111" vertex="1" connectable="0">
          <mxGeometry x="-0.8345" y="1" relative="1" as="geometry">
            <mxPoint x="14" y="1" as="offset" />
          </mxGeometry>
        </mxCell>
        <mxCell id="i9lgYNFTx9GkfpuUzzLs-119" value="" style="endArrow=none;html=1;rounded=0;strokeColor=#E07A5F;fontColor=#393C56;fillColor=#F2CC8F;entryX=0;entryY=0.5;entryDx=0;entryDy=0;exitX=1;exitY=0;exitDx=0;exitDy=0;" parent="1" source="i9lgYNFTx9GkfpuUzzLs-6" target="i9lgYNFTx9GkfpuUzzLs-121" edge="1">
          <mxGeometry relative="1" as="geometry">
            <mxPoint x="90" y="440" as="sourcePoint" />
            <mxPoint x="260" y="440" as="targetPoint" />
          </mxGeometry>
        </mxCell>
        <mxCell id="i9lgYNFTx9GkfpuUzzLs-125" value="0-N" style="edgeLabel;html=1;align=center;verticalAlign=middle;resizable=0;points=[];fontColor=#393C56;" parent="i9lgYNFTx9GkfpuUzzLs-119" vertex="1" connectable="0">
          <mxGeometry x="-0.9096" y="2" relative="1" as="geometry">
            <mxPoint x="-12" y="6" as="offset" />
          </mxGeometry>
        </mxCell>
        <mxCell id="i9lgYNFTx9GkfpuUzzLs-120" value="" style="endArrow=none;html=1;rounded=0;strokeColor=#E07A5F;fontColor=#393C56;fillColor=#F2CC8F;exitX=1;exitY=0;exitDx=0;exitDy=0;entryX=0.5;entryY=1;entryDx=0;entryDy=0;" parent="1" source="i9lgYNFTx9GkfpuUzzLs-12" target="i9lgYNFTx9GkfpuUzzLs-121" edge="1">
          <mxGeometry relative="1" as="geometry">
            <mxPoint x="100" y="450" as="sourcePoint" />
            <mxPoint x="270" y="450" as="targetPoint" />
          </mxGeometry>
        </mxCell>
        <mxCell id="i9lgYNFTx9GkfpuUzzLs-124" value="1-1" style="edgeLabel;html=1;align=center;verticalAlign=middle;resizable=0;points=[];fontColor=#393C56;" parent="i9lgYNFTx9GkfpuUzzLs-120" vertex="1" connectable="0">
          <mxGeometry x="-0.5962" y="-2" relative="1" as="geometry">
            <mxPoint x="-14" y="46" as="offset" />
          </mxGeometry>
        </mxCell>
        <mxCell id="i9lgYNFTx9GkfpuUzzLs-121" value="Attached to" style="shape=associativeEntity;whiteSpace=wrap;html=1;align=center;rounded=1;strokeColor=#E07A5F;fontColor=#393C56;fillColor=#F2CC8F;" parent="1" vertex="1">
          <mxGeometry x="1180" y="140" width="140" height="60" as="geometry" />
        </mxCell>
        <mxCell id="i9lgYNFTx9GkfpuUzzLs-123" value="" style="edgeStyle=orthogonalEdgeStyle;rounded=1;orthogonalLoop=1;jettySize=auto;html=1;strokeColor=#E07A5F;fontColor=#393C56;fillColor=#F2CC8F;" parent="1" source="i9lgYNFTx9GkfpuUzzLs-122" target="i9lgYNFTx9GkfpuUzzLs-121" edge="1">
          <mxGeometry relative="1" as="geometry" />
        </mxCell>
        <mxCell id="i9lgYNFTx9GkfpuUzzLs-122" value="Academic Year" style="ellipse;whiteSpace=wrap;html=1;align=center;rounded=1;strokeColor=#E07A5F;fontColor=#393C56;fillColor=#F2CC8F;" parent="1" vertex="1">
          <mxGeometry x="1200" y="70" width="100" height="40" as="geometry" />
        </mxCell>
        <mxCell id="-0L53v9cQXwnc_Pr5HDI-1" value="" style="endArrow=none;html=1;rounded=0;strokeColor=#E07A5F;fontColor=#393C56;fillColor=#F2CC8F;exitX=1;exitY=0.5;exitDx=0;exitDy=0;entryX=-0.009;entryY=0.422;entryDx=0;entryDy=0;entryPerimeter=0;" parent="1" source="i9lgYNFTx9GkfpuUzzLs-69" target="i9lgYNFTx9GkfpuUzzLs-12" edge="1">
          <mxGeometry relative="1" as="geometry">
            <mxPoint x="880" y="540" as="sourcePoint" />
            <mxPoint x="960" y="490" as="targetPoint" />
          </mxGeometry>
        </mxCell>
        <mxCell id="-0L53v9cQXwnc_Pr5HDI-2" value="0-N" style="edgeLabel;html=1;align=center;verticalAlign=middle;resizable=0;points=[];fontColor=#393C56;" parent="-0L53v9cQXwnc_Pr5HDI-1" vertex="1" connectable="0">
          <mxGeometry x="-0.625" relative="1" as="geometry">
            <mxPoint x="54" as="offset" />
          </mxGeometry>
        </mxCell>
        <mxCell id="-0L53v9cQXwnc_Pr5HDI-3" value="Option" style="swimlane;childLayout=stackLayout;horizontal=1;startSize=50;horizontalStack=0;rounded=1;fontSize=14;fontStyle=0;strokeWidth=2;resizeParent=0;resizeLast=1;shadow=0;dashed=0;align=center;arcSize=4;whiteSpace=wrap;html=1;labelBackgroundColor=none;fillColor=#F2CC8F;strokeColor=#E07A5F;fontColor=#393C56;" parent="1" vertex="1">
          <mxGeometry x="550" y="810" width="160" height="120" as="geometry" />
        </mxCell>
        <mxCell id="-0L53v9cQXwnc_Pr5HDI-4" value="+Name&lt;br&gt;&lt;div&gt;&lt;br&gt;&lt;/div&gt;" style="align=left;strokeColor=none;fillColor=none;spacingLeft=4;fontSize=12;verticalAlign=top;resizable=0;rotatable=0;part=1;html=1;labelBackgroundColor=none;fontColor=#393C56;rounded=1;" parent="-0L53v9cQXwnc_Pr5HDI-3" vertex="1">
          <mxGeometry y="50" width="160" height="70" as="geometry" />
        </mxCell>
        <mxCell id="110ro--47TwxNLu3aiox-1" value="Follow" style="shape=associativeEntity;whiteSpace=wrap;html=1;align=center;rounded=1;strokeColor=#E07A5F;fontColor=#393C56;fillColor=#F2CC8F;" parent="1" vertex="1">
          <mxGeometry x="560" y="670" width="140" height="60" as="geometry" />
        </mxCell>
        <mxCell id="110ro--47TwxNLu3aiox-2" value="Refer" style="shape=associativeEntity;whiteSpace=wrap;html=1;align=center;rounded=1;strokeColor=#E07A5F;fontColor=#393C56;fillColor=#F2CC8F;" parent="1" vertex="1">
          <mxGeometry x="800" y="840" width="140" height="60" as="geometry" />
        </mxCell>
        <mxCell id="110ro--47TwxNLu3aiox-5" value="" style="endArrow=none;html=1;rounded=0;strokeColor=#E07A5F;fontColor=#393C56;fillColor=#F2CC8F;entryX=0.5;entryY=1;entryDx=0;entryDy=0;exitX=0.5;exitY=0;exitDx=0;exitDy=0;" parent="1" source="110ro--47TwxNLu3aiox-2" target="i9lgYNFTx9GkfpuUzzLs-15" edge="1">
          <mxGeometry relative="1" as="geometry">
            <mxPoint x="560" y="950" as="sourcePoint" />
            <mxPoint x="480" y="950" as="targetPoint" />
          </mxGeometry>
        </mxCell>
        <mxCell id="110ro--47TwxNLu3aiox-10" value="1-N" style="edgeLabel;html=1;align=center;verticalAlign=middle;resizable=0;points=[];" parent="110ro--47TwxNLu3aiox-5" vertex="1" connectable="0">
          <mxGeometry x="0.8267" relative="1" as="geometry">
            <mxPoint y="4" as="offset" />
          </mxGeometry>
        </mxCell>
        <mxCell id="110ro--47TwxNLu3aiox-7" value="" style="endArrow=none;html=1;rounded=0;strokeColor=#E07A5F;fontColor=#393C56;fillColor=#F2CC8F;entryX=0.5;entryY=1;entryDx=0;entryDy=0;exitX=0.5;exitY=0;exitDx=0;exitDy=0;" parent="1" source="110ro--47TwxNLu3aiox-1" target="i9lgYNFTx9GkfpuUzzLs-11" edge="1">
          <mxGeometry relative="1" as="geometry">
            <mxPoint x="850" y="920" as="sourcePoint" />
            <mxPoint x="850" y="730" as="targetPoint" />
          </mxGeometry>
        </mxCell>
        <mxCell id="110ro--47TwxNLu3aiox-12" value="1-1" style="edgeLabel;html=1;align=center;verticalAlign=middle;resizable=0;points=[];" parent="110ro--47TwxNLu3aiox-7" vertex="1" connectable="0">
          <mxGeometry x="0.8658" y="-1" relative="1" as="geometry">
            <mxPoint x="-1" y="5" as="offset" />
          </mxGeometry>
        </mxCell>
        <mxCell id="110ro--47TwxNLu3aiox-17" value="" style="edgeStyle=orthogonalEdgeStyle;rounded=0;orthogonalLoop=1;jettySize=auto;html=1;" parent="1" source="110ro--47TwxNLu3aiox-16" target="110ro--47TwxNLu3aiox-1" edge="1">
          <mxGeometry relative="1" as="geometry" />
        </mxCell>
        <mxCell id="110ro--47TwxNLu3aiox-16" value="Academic Year" style="ellipse;whiteSpace=wrap;html=1;align=center;rounded=1;strokeColor=#E07A5F;fontColor=#393C56;fillColor=#F2CC8F;" parent="1" vertex="1">
          <mxGeometry x="420" y="710" width="100" height="40" as="geometry" />
        </mxCell>
        <mxCell id="110ro--47TwxNLu3aiox-19" value="" style="edgeStyle=orthogonalEdgeStyle;rounded=0;orthogonalLoop=1;jettySize=auto;html=1;" parent="1" source="110ro--47TwxNLu3aiox-18" target="110ro--47TwxNLu3aiox-2" edge="1">
          <mxGeometry relative="1" as="geometry" />
        </mxCell>
        <mxCell id="110ro--47TwxNLu3aiox-18" value="Weekly Hours" style="ellipse;whiteSpace=wrap;html=1;align=center;rounded=1;strokeColor=#E07A5F;fontColor=#393C56;fillColor=#F2CC8F;" parent="1" vertex="1">
          <mxGeometry x="760" y="980" width="100" height="40" as="geometry" />
        </mxCell>
        <mxCell id="110ro--47TwxNLu3aiox-25" value="" style="endArrow=none;html=1;rounded=0;strokeColor=#E07A5F;fontColor=#393C56;fillColor=#F2CC8F;entryX=0.5;entryY=1;entryDx=0;entryDy=0;exitX=0.5;exitY=0;exitDx=0;exitDy=0;" parent="1" source="-0L53v9cQXwnc_Pr5HDI-3" target="110ro--47TwxNLu3aiox-1" edge="1">
          <mxGeometry relative="1" as="geometry">
            <mxPoint x="300" y="1300" as="sourcePoint" />
            <mxPoint x="680" y="1150" as="targetPoint" />
          </mxGeometry>
        </mxCell>
        <mxCell id="110ro--47TwxNLu3aiox-28" value="1-N" style="edgeLabel;html=1;align=center;verticalAlign=middle;resizable=0;points=[];" parent="110ro--47TwxNLu3aiox-25" vertex="1" connectable="0">
          <mxGeometry x="-0.6" relative="1" as="geometry">
            <mxPoint as="offset" />
          </mxGeometry>
        </mxCell>
        <mxCell id="110ro--47TwxNLu3aiox-29" value="" style="endArrow=none;html=1;rounded=0;strokeColor=#E07A5F;fontColor=#393C56;fillColor=#F2CC8F;entryX=1;entryY=0.5;entryDx=0;entryDy=0;exitX=0;exitY=0.5;exitDx=0;exitDy=0;" parent="1" source="110ro--47TwxNLu3aiox-2" target="-0L53v9cQXwnc_Pr5HDI-3" edge="1">
          <mxGeometry relative="1" as="geometry">
            <mxPoint x="850" y="880" as="sourcePoint" />
            <mxPoint x="850" y="730" as="targetPoint" />
          </mxGeometry>
        </mxCell>
        <mxCell id="110ro--47TwxNLu3aiox-30" value="1-N" style="edgeLabel;html=1;align=center;verticalAlign=middle;resizable=0;points=[];" parent="110ro--47TwxNLu3aiox-29" vertex="1" connectable="0">
          <mxGeometry x="0.8267" relative="1" as="geometry">
            <mxPoint x="12" as="offset" />
          </mxGeometry>
        </mxCell>
        <mxCell id="110ro--47TwxNLu3aiox-32" value="" style="edgeStyle=orthogonalEdgeStyle;rounded=0;orthogonalLoop=1;jettySize=auto;html=1;" parent="1" source="110ro--47TwxNLu3aiox-31" target="110ro--47TwxNLu3aiox-2" edge="1">
          <mxGeometry relative="1" as="geometry" />
        </mxCell>
        <mxCell id="110ro--47TwxNLu3aiox-31" value="Option Grade" style="ellipse;whiteSpace=wrap;html=1;align=center;rounded=1;strokeColor=#E07A5F;fontColor=#393C56;fillColor=#F2CC8F;" parent="1" vertex="1">
          <mxGeometry x="700" y="940" width="100" height="40" as="geometry" />
        </mxCell>
        <mxCell id="110ro--47TwxNLu3aiox-34" value="" style="edgeStyle=orthogonalEdgeStyle;rounded=0;orthogonalLoop=1;jettySize=auto;html=1;" parent="1" source="110ro--47TwxNLu3aiox-33" target="110ro--47TwxNLu3aiox-1" edge="1">
          <mxGeometry relative="1" as="geometry" />
        </mxCell>
        <mxCell id="110ro--47TwxNLu3aiox-33" value="Option Grade" style="ellipse;whiteSpace=wrap;html=1;align=center;rounded=1;strokeColor=#E07A5F;fontColor=#393C56;fillColor=#F2CC8F;" parent="1" vertex="1">
          <mxGeometry x="420" y="650" width="100" height="40" as="geometry" />
        </mxCell>
        <mxCell id="110ro--47TwxNLu3aiox-35" value="" style="rounded=1;orthogonalLoop=1;jettySize=auto;html=1;strokeColor=#E07A5F;fontColor=#393C56;fillColor=#F2CC8F;entryX=0.75;entryY=0;entryDx=0;entryDy=0;exitX=0.5;exitY=1;exitDx=0;exitDy=0;" parent="1" source="i9lgYNFTx9GkfpuUzzLs-70" target="i9lgYNFTx9GkfpuUzzLs-69" edge="1">
          <mxGeometry relative="1" as="geometry">
            <mxPoint x="686" y="780" as="sourcePoint" />
            <mxPoint x="800" y="560" as="targetPoint" />
          </mxGeometry>
        </mxCell>
        <mxCell id="110ro--47TwxNLu3aiox-38" value="" style="edgeStyle=orthogonalEdgeStyle;rounded=0;orthogonalLoop=1;jettySize=auto;html=1;" parent="1" source="110ro--47TwxNLu3aiox-37" target="110ro--47TwxNLu3aiox-2" edge="1">
          <mxGeometry relative="1" as="geometry" />
        </mxCell>
        <mxCell id="110ro--47TwxNLu3aiox-37" value="Academic Year" style="ellipse;whiteSpace=wrap;html=1;align=center;rounded=1;strokeColor=#E07A5F;fontColor=#393C56;fillColor=#F2CC8F;" parent="1" vertex="1">
          <mxGeometry x="940" y="940" width="100" height="40" as="geometry" />
        </mxCell>
        <mxCell id="iACFCSB-XH65aEvDO6Ks-5" value="" style="edgeStyle=orthogonalEdgeStyle;rounded=0;orthogonalLoop=1;jettySize=auto;html=1;" edge="1" parent="1" source="iACFCSB-XH65aEvDO6Ks-4" target="110ro--47TwxNLu3aiox-2">
          <mxGeometry relative="1" as="geometry" />
        </mxCell>
        <mxCell id="iACFCSB-XH65aEvDO6Ks-4" value="Total Hours" style="ellipse;whiteSpace=wrap;html=1;align=center;rounded=1;strokeColor=#E07A5F;fontColor=#393C56;fillColor=#F2CC8F;" vertex="1" parent="1">
          <mxGeometry x="880" y="980" width="100" height="40" as="geometry" />
        </mxCell>
        <mxCell id="iACFCSB-XH65aEvDO6Ks-7" value="" style="edgeStyle=orthogonalEdgeStyle;rounded=0;orthogonalLoop=1;jettySize=auto;html=1;entryX=0.5;entryY=1;entryDx=0;entryDy=0;" edge="1" parent="1" source="iACFCSB-XH65aEvDO6Ks-6" target="110ro--47TwxNLu3aiox-2">
          <mxGeometry relative="1" as="geometry" />
        </mxCell>
        <mxCell id="iACFCSB-XH65aEvDO6Ks-6" value="Semestre" style="ellipse;whiteSpace=wrap;html=1;align=center;rounded=1;strokeColor=#E07A5F;fontColor=#393C56;fillColor=#F2CC8F;" vertex="1" parent="1">
          <mxGeometry x="820" y="1020" width="100" height="40" as="geometry" />
        </mxCell>
        <mxCell id="iACFCSB-XH65aEvDO6Ks-8" value="Equipment_Type" style="swimlane;childLayout=stackLayout;horizontal=1;startSize=50;horizontalStack=0;rounded=1;fontSize=14;fontStyle=0;strokeWidth=2;resizeParent=0;resizeLast=1;shadow=0;dashed=0;align=center;arcSize=4;whiteSpace=wrap;html=1;labelBackgroundColor=none;fillColor=#F2CC8F;strokeColor=#E07A5F;fontColor=#393C56;" vertex="1" parent="1">
          <mxGeometry x="1270" y="650" width="160" height="120" as="geometry" />
        </mxCell>
        <mxCell id="iACFCSB-XH65aEvDO6Ks-9" value="+Brand&lt;br&gt;+Model&lt;br&gt;+Description&lt;br&gt;+isAttached&lt;br&gt;" style="align=left;strokeColor=none;fillColor=none;spacingLeft=4;fontSize=12;verticalAlign=top;resizable=0;rotatable=0;part=1;html=1;labelBackgroundColor=none;fontColor=#393C56;rounded=1;" vertex="1" parent="iACFCSB-XH65aEvDO6Ks-8">
          <mxGeometry y="50" width="160" height="70" as="geometry" />
        </mxCell>
        <mxCell id="iACFCSB-XH65aEvDO6Ks-11" value="Is" style="shape=rhombus;perimeter=rhombusPerimeter;whiteSpace=wrap;html=1;align=center;labelBackgroundColor=none;fillColor=#F2CC8F;strokeColor=#E07A5F;fontColor=#393C56;rounded=1;" vertex="1" parent="1">
          <mxGeometry x="1290" y="500" width="120" height="60" as="geometry" />
        </mxCell>
        <mxCell id="iACFCSB-XH65aEvDO6Ks-12" value="" style="endArrow=none;html=1;rounded=0;strokeColor=#E07A5F;fontColor=#393C56;fillColor=#F2CC8F;entryX=1;entryY=0;entryDx=0;entryDy=0;exitX=0;exitY=0.5;exitDx=0;exitDy=0;" edge="1" parent="1" source="iACFCSB-XH65aEvDO6Ks-11" target="i9lgYNFTx9GkfpuUzzLs-13">
          <mxGeometry relative="1" as="geometry">
            <mxPoint x="1310" y="570" as="sourcePoint" />
            <mxPoint x="1220" y="570" as="targetPoint" />
          </mxGeometry>
        </mxCell>
        <mxCell id="iACFCSB-XH65aEvDO6Ks-13" value="1-1" style="edgeLabel;html=1;align=center;verticalAlign=middle;resizable=0;points=[];fontColor=#393C56;" vertex="1" connectable="0" parent="iACFCSB-XH65aEvDO6Ks-12">
          <mxGeometry x="-0.912" y="-1" relative="1" as="geometry">
            <mxPoint x="-76" y="1" as="offset" />
          </mxGeometry>
        </mxCell>
        <mxCell id="iACFCSB-XH65aEvDO6Ks-14" value="" style="endArrow=none;html=1;rounded=0;strokeColor=#E07A5F;fontColor=#393C56;fillColor=#F2CC8F;entryX=0.5;entryY=1;entryDx=0;entryDy=0;exitX=0.5;exitY=0;exitDx=0;exitDy=0;" edge="1" parent="1">
          <mxGeometry relative="1" as="geometry">
            <mxPoint x="1349.69" y="650" as="sourcePoint" />
            <mxPoint x="1349.69" y="560" as="targetPoint" />
          </mxGeometry>
        </mxCell>
        <mxCell id="iACFCSB-XH65aEvDO6Ks-15" value="0-N" style="edgeLabel;html=1;align=center;verticalAlign=middle;resizable=0;points=[];fontColor=#393C56;" vertex="1" connectable="0" parent="iACFCSB-XH65aEvDO6Ks-14">
          <mxGeometry x="-0.912" y="-1" relative="1" as="geometry">
            <mxPoint x="-1" y="-16" as="offset" />
          </mxGeometry>
        </mxCell>
        <mxCell id="iACFCSB-XH65aEvDO6Ks-16" value="Depend" style="shape=associativeEntity;whiteSpace=wrap;html=1;align=center;rounded=1;strokeColor=#E07A5F;fontColor=#393C56;fillColor=#F2CC8F;" vertex="1" parent="1">
          <mxGeometry x="330" y="110" width="140" height="60" as="geometry" />
        </mxCell>
      </root>
    </mxGraphModel>
  </diagram>
</mxfile>
